# xmcd CD database file
#
# Track frame offsets:
#	150
#	21682
#	43917
#	62857
#	96648
#	119747
#	133315
#	153389
#	178593
#	200746
#	217527
#	234551
#	256947
#	270946
#	289292
#	305262
#
# Disc length: 4330 seconds
#
# Revision: 1
# Processed by: cddbd v1.5.2PL0 Copyright (c) Steve Scherf et al.
# Submitted via: CDex 1.51
#
DISCID=fa10e810
DTITLE=The Eagles - The Complete Greatest Hits CD2
DYEAR=2007
DGENRE=Rock
TTITLE0=Life In The Fast Lane
TTITLE1=Wasted Time
TTITLE2=Victim Of Love
TTITLE3=The Last Resort
TTITLE4=New Kid In Town
TTITLE5=Please Come Home For Christmas
TTITLE6=Heartache Tonight
TTITLE7=The Sad Cafe
TTITLE8=I Can't Tell You Why
TTITLE9=The Long Run
TTITLE10=In The City
TTITLE11=Those Shoes
TTITLE12=Seven Bridges Road (Live)
TTITLE13=Love Will Keep Us Alive
TTITLE14=Get Over It
TTITLE15=Hole In The World
EXTD=YEAR: 2007
EXTT0=
EXTT1=
EXTT2=
EXTT3=
EXTT4=
EXTT5=
EXTT6=
EXTT7=
EXTT8=
EXTT9=
EXTT10=
EXTT11=
EXTT12=
EXTT13=
EXTT14=
EXTT15=
PLAYORDER=
